<?xml version="1.0" encoding="UTF-8" standalone="no"?>
<!-- Created with Inkscape (http://www.inkscape.org/) -->

<svg
   xmlns:dc="http://purl.org/dc/elements/1.1/"
   xmlns:cc="http://creativecommons.org/ns#"
   xmlns:rdf="http://www.w3.org/1999/02/22-rdf-syntax-ns#"
   xmlns:svg="http://www.w3.org/2000/svg"
   xmlns="http://www.w3.org/2000/svg"
   xmlns:sodipodi="http://sodipodi.sourceforge.net/DTD/sodipodi-0.dtd"
   xmlns:inkscape="http://www.inkscape.org/namespaces/inkscape"
   id="svg8"
   version="1.1"
   viewBox="0 0 61.193478 67.542175"
   height="67.542175mm"
   width="61.193478mm"
   inkscape:version="0.92.1 r"
   sodipodi:docname="LogoV2.svg">
  <sodipodi:namedview
     inkscape:window-maximized="1"
     inkscape:window-y="27"
     inkscape:window-x="0"
     inkscape:window-height="1016"
     inkscape:window-width="1920"
     showgrid="false"
     inkscape:current-layer="layer1"
     inkscape:document-units="mm"
     inkscape:cy="63.156389"
     inkscape:cx="94.967188"
     inkscape:zoom="0.7"
     inkscape:pageshadow="2"
     inkscape:pageopacity="0.0"
     borderopacity="1.0"
     bordercolor="#666666"
     pagecolor="#ffffff"
     id="base"
     inkscape:snap-nodes="false"
     fit-margin-top="0"
     fit-margin-left="0"
     fit-margin-right="0"
     fit-margin-bottom="0" />
  <defs
     id="defs2" />
  <metadata
     id="metadata5">
    <rdf:RDF>
      <cc:Work
         rdf:about="">
        <dc:format>image/svg+xml</dc:format>
        <dc:type
           rdf:resource="http://purl.org/dc/dcmitype/StillImage" />
        <dc:title></dc:title>
      </cc:Work>
    </rdf:RDF>
  </metadata>
  <g
     inkscape:label="Capa 1"
     inkscape:groupmode="layer"
     id="layer1"
     transform="translate(-74.227944,-108.36129)">
    <g
       id="g4830"
       style="fill:#005893;fill-opacity:1;stroke:none;stroke-width:2;stroke-opacity:0.6">
      <path
         id="path4650"
         d="m 82.209967,118.36177 10.000056,-10.00048 -0.419095,0.36691 -10.000056,10.00047 0.419095,-0.3669"
         style="fill:#005893;fill-opacity:1;stroke:none"
         inkscape:connector-curvature="0" />
      <path
         id="path4652"
         d="M 81.790872,118.72867 91.790928,108.7282 89.467556,126.15659 79.4675,136.15706 81.790872,118.72867"
         style="fill:#005893;fill-opacity:1;stroke:none"
         inkscape:connector-curvature="0" />
      <path
         id="path4654"
         d="m 79.4675,136.15706 10.000056,-10.00047 0.121438,0.35605 -10.000056,10.00047 -0.121438,-0.35605"
         style="fill:#005893;fill-opacity:1;stroke:none"
         inkscape:connector-curvature="0" />
      <path
         id="path4656"
         d="m 79.588938,136.51311 10.000056,-10.00047 0.437185,0.43357 -10.000056,10.00047 -0.437185,-0.43357"
         style="fill:#005893;fill-opacity:1;stroke:none"
         inkscape:connector-curvature="0" />
      <path
         id="path4658"
         d="m 80.026123,136.94668 10.000056,-10.00047 0.297656,0.12247 -10.000056,10.00047 -0.297656,-0.12247"
         style="fill:#005893;fill-opacity:1;stroke:none"
         inkscape:connector-curvature="0" />
      <path
         id="path4660"
         d="m 80.323779,137.06915 10.000056,-10.00047 0.762743,0.0687 -10.000056,10.00047 -0.762743,-0.0687"
         style="fill:#005893;fill-opacity:1;stroke:none"
         inkscape:connector-curvature="0" />
      <path
         id="path4662"
         d="m 81.086522,137.13788 10.000056,-10.00047 0.05323,0.004 -10.000056,10.00048 -0.05323,-0.004"
         style="fill:#005893;fill-opacity:1;stroke:none"
         inkscape:connector-curvature="0" />
      <path
         id="path4664"
         d="m 81.139749,137.14151 10.000056,-10.00048 1.182356,0.0698 -10.000056,10.00047 -1.182356,-0.0698"
         style="fill:#005893;fill-opacity:1;stroke:none"
         inkscape:connector-curvature="0" />
      <path
         id="path4666"
         d="m 82.322105,137.21127 10.000056,-10.00047 1.212329,0.14366 -10.000056,10.00047 -1.212329,-0.14366"
         style="fill:#005893;fill-opacity:1;stroke:none"
         inkscape:connector-curvature="0" />
      <path
         id="path4668"
         d="m 83.534434,137.35493 10.000056,-10.00047 0.688848,0.12196 -10.000056,10.00047 -0.688848,-0.12196"
         style="fill:#005893;fill-opacity:1;stroke:none"
         inkscape:connector-curvature="0" />
      <path
         id="path4670"
         d="m 84.223282,137.47689 10.000056,-10.00047 0.02016,0.015 -10.000056,10.00047 -0.02016,-0.015"
         style="fill:#005893;fill-opacity:1;stroke:none"
         inkscape:connector-curvature="0" />
      <path
         id="path4672"
         d="m 84.243443,137.49186 10.000056,-10.00047 0.171051,0.10129 -10.000056,10.00047 -0.171051,-0.10129"
         style="fill:#005893;fill-opacity:1;stroke:none"
         inkscape:connector-curvature="0" />
      <path
         id="path4674"
         d="m 84.414494,137.59315 10.000056,-10.00047 0.551902,0.2961 -10.000056,10.00047 -0.551902,-0.2961"
         style="fill:#005893;fill-opacity:1;stroke:none"
         inkscape:connector-curvature="0" />
      <path
         id="path4676"
         d="m 84.966396,137.88925 10.000056,-10.00047 0.04961,0.0217 -10.000056,10.00047 -0.04961,-0.0217"
         style="fill:#005893;fill-opacity:1;stroke:none"
         inkscape:connector-curvature="0" />
      <path
         id="path4678"
         d="m 85.016006,137.91095 10.000056,-10.00047 1.006657,0.39739 -10.000056,10.00047 -1.006657,-0.39739"
         style="fill:#005893;fill-opacity:1;stroke:none"
         inkscape:connector-curvature="0" />
      <path
         id="path4680"
         d="m 86.022663,138.30834 10.000056,-10.00047 0.158131,0.15709 -10.000056,10.00048 -0.158131,-0.1571"
         style="fill:#005893;fill-opacity:1;stroke:none"
         inkscape:connector-curvature="0" />
      <path
         id="path4682"
         d="m 86.180794,138.46544 10.000056,-10.00048 0.0279,0.0248 -10.000056,10.00047 -0.0279,-0.0248"
         style="fill:#005893;fill-opacity:1;stroke:none"
         inkscape:connector-curvature="0" />
      <path
         id="path4684"
         d="m 86.208697,138.49023 10.000056,-10.00047 -0.845942,0.0481 -10.000056,10.00047 0.845942,-0.0481"
         style="fill:#005893;fill-opacity:1;stroke:none"
         inkscape:connector-curvature="0" />
      <path
         id="path4686"
         d="m 85.362755,138.53829 10.000056,-10.00047 -0.01394,10e-4 -10.000056,10.00047 0.01394,-0.001"
         style="fill:#005893;fill-opacity:1;stroke:none"
         inkscape:connector-curvature="0" />
      <path
         id="path4688"
         d="m 85.348812,138.53935 10.000056,-10.00047 -1.823659,0.0718 -10.000056,10.00047 1.823659,-0.0718"
         style="fill:#005893;fill-opacity:1;stroke:none"
         inkscape:connector-curvature="0" />
      <path
         id="path4690"
         d="m 83.525153,138.61118 10.000056,-10.00047 -1.920815,0.14521 -10.000056,10.00047 1.920815,-0.14521"
         style="fill:#005893;fill-opacity:1;stroke:none"
         inkscape:connector-curvature="0" />
      <path
         id="path4692"
         d="m 81.604338,138.75639 10.000056,-10.00047 h -0.0036 l -10.000056,10.00047 h 0.0036"
         style="fill:#005893;fill-opacity:1;stroke:none"
         inkscape:connector-curvature="0" />
      <path
         id="path4694"
         d="m 81.600714,138.75639 10.000056,-10.00047 -1.226283,0.15244 -10.000056,10.00048 1.226283,-0.15245"
         style="fill:#005893;fill-opacity:1;stroke:none"
         inkscape:connector-curvature="0" />
      <path
         id="path4696"
         d="m 80.374431,138.90884 10.000056,-10.00048 -0.0739,0.0227 -10.000056,10.00047 0.0739,-0.0227"
         style="fill:#005893;fill-opacity:1;stroke:none"
         inkscape:connector-curvature="0" />
      <path
         id="path4698"
         d="m 80.300535,138.93156 10.000056,-10.00047 -0.579294,0.20671 -10.000056,10.00047 0.579294,-0.20671"
         style="fill:#005893;fill-opacity:1;stroke:none"
         inkscape:connector-curvature="0" />
      <path
         id="path4700"
         d="m 79.721241,139.13827 10.000056,-10.00047 -0.378788,0.14831 -10.000056,10.00047 0.378788,-0.14831"
         style="fill:#005893;fill-opacity:1;stroke:none"
         inkscape:connector-curvature="0" />
      <path
         id="path4702"
         d="m 79.342453,139.28658 10.000056,-10.00047 -0.158647,0.0966 -10.000056,10.00048 0.158647,-0.0966"
         style="fill:#005893;fill-opacity:1;stroke:none"
         inkscape:connector-curvature="0" />
      <path
         id="path4704"
         d="m 79.183806,139.38322 10.000056,-10.00048 -0.189651,0.32091 -10.000056,10.00048 0.189651,-0.32091"
         style="fill:#005893;fill-opacity:1;stroke:none"
         inkscape:connector-curvature="0" />
      <path
         id="path4706"
         d="m 78.994155,139.70413 10.000056,-10.00048 -4.7625,35.72082 -10.000056,10.00047 4.7625,-35.72081"
         style="fill:#005893;fill-opacity:1;stroke:none"
         inkscape:connector-curvature="0" />
      <path
         id="path4708"
         d="m 74.231655,175.42494 10.000056,-10.00047 0.101015,0.33432 -10.000056,10.00047 -0.101015,-0.33432"
         style="fill:#005893;fill-opacity:1;stroke:none"
         inkscape:connector-curvature="0" />
      <path
         id="path4710"
         d="m 74.33267,175.75926 10.000056,-10.00047 0.31808,0.14421 -10.000056,10.00047 -0.31808,-0.14421"
         style="fill:#005893;fill-opacity:1;stroke:none"
         inkscape:connector-curvature="0" />
      <path
         id="path4712"
         d="M 74.65075,175.90347 84.650806,165.903 h 48.381024 l -10.00006,10.00047 H 74.65075"
         style="fill:#005893;fill-opacity:1;stroke:none"
         inkscape:connector-curvature="0" />
      <path
         id="path4714"
         d="m 123.03177,175.90347 10.00006,-10.00047 0.4191,-0.36691 -10.00006,10.00047 -0.4191,0.36691"
         style="fill:#005893;fill-opacity:1;stroke:none"
         inkscape:connector-curvature="0" />
      <path
         id="path4716"
         d="m 123.45087,175.53656 10.00006,-10.00047 1.9668,-14.75258 -10.00005,10.00047 -1.96681,14.75258"
         style="fill:#005893;fill-opacity:1;stroke:none"
         inkscape:connector-curvature="0" />
      <path
         id="path4718"
         d="m 125.41768,160.78398 10.00005,-10.00047 -0.10101,-0.33432 -10.00006,10.00047 0.10102,0.33432"
         style="fill:#005893;fill-opacity:1;stroke:none"
         inkscape:connector-curvature="0" />
      <path
         id="path4720"
         d="m 125.31666,160.44966 10.00006,-10.00047 -0.31808,-0.14421 -10.00006,10.00047 0.31808,0.14421"
         style="fill:#005893;fill-opacity:1;stroke:none"
         inkscape:connector-curvature="0" />
      <path
         id="path4722"
         d="m 124.99858,160.30545 10.00006,-10.00047 h -11.72385 l -10.00005,10.00047 h 11.72384"
         style="fill:#005893;fill-opacity:1;stroke:none"
         inkscape:connector-curvature="0" />
      <path
         id="path4724"
         d="m 113.27474,160.30545 10.00005,-10.00047 -0.41909,0.3669 -10.00006,10.00047 0.4191,-0.3669"
         style="fill:#005893;fill-opacity:1;stroke:none"
         inkscape:connector-curvature="0" />
      <path
         id="path4726"
         d="m 112.85564,160.67235 10.00006,-10.00047 -0.20826,0.51315 -10.00005,10.00047 0.20825,-0.51315"
         style="fill:#005893;fill-opacity:1;stroke:none"
         inkscape:connector-curvature="0" />
      <path
         id="path4728"
         d="m 112.64739,161.1855 10.00005,-10.00047 -0.46405,0.95705 -10.00006,10.00047 0.46406,-0.95705"
         style="fill:#005893;fill-opacity:1;stroke:none"
         inkscape:connector-curvature="0" />
      <path
         id="path4730"
         d="m 112.18333,162.14255 10.00006,-10.00047 -0.447,0.92346 -10.00006,10.00047 0.447,-0.92346"
         style="fill:#005893;fill-opacity:1;stroke:none"
         inkscape:connector-curvature="0" />
      <path
         id="path4732"
         d="m 111.73633,163.06601 10.00006,-10.00047 -0.0263,0.063 -10.00006,10.00047 0.0263,-0.063"
         style="fill:#005893;fill-opacity:1;stroke:none"
         inkscape:connector-curvature="0" />
      <path
         id="path4734"
         d="m 111.70998,163.12905 10.00006,-10.00047 -0.22635,0.58756 -10.00005,10.00047 0.22634,-0.58756"
         style="fill:#005893;fill-opacity:1;stroke:none"
         inkscape:connector-curvature="0" />
      <path
         id="path4736"
         d="m 111.48364,163.71661 10.00005,-10.00047 h 5.3e-4 l -10.00005,10.00047 h -5.3e-4"
         style="fill:#005893;fill-opacity:1;stroke:none"
         inkscape:connector-curvature="0" />
      <path
         id="path4738"
         d="m 111.48417,163.71661 10.00005,-10.00047 -0.35243,0.74001 -10.00006,10.00047 0.35244,-0.74001"
         style="fill:#005893;fill-opacity:1;stroke:none"
         inkscape:connector-curvature="0" />
      <path
         id="path4740"
         d="m 111.13173,164.45662 10.00006,-10.00047 v 5.3e-4 l -10.00006,10.00047 v -5.3e-4"
         style="fill:#005893;fill-opacity:1;stroke:none"
         inkscape:connector-curvature="0" />
      <path
         id="path4742"
         d="m 111.13173,164.45715 10.00006,-10.00047 -0.1819,0.3669 -10.00006,10.00047 0.1819,-0.3669"
         style="fill:#005893;fill-opacity:1;stroke:none"
         inkscape:connector-curvature="0" />
      <path
         id="path4744"
         d="m 110.94983,164.82405 10.00006,-10.00047 -0.0196,0.0548 -10.00006,10.00047 0.0196,-0.0548"
         style="fill:#005893;fill-opacity:1;stroke:none"
         inkscape:connector-curvature="0" />
      <path
         id="path4746"
         d="m 110.9302,164.87883 10.00006,-10.00047 -0.0847,0.0894 -10.00006,10.00047 0.0847,-0.0894"
         style="fill:#005893;fill-opacity:1;stroke:none"
         inkscape:connector-curvature="0" />
      <path
         id="path4748"
         d="m 110.84545,164.96823 10.00006,-10.00047 -0.73329,0.81649 -10.00006,10.00047 0.73329,-0.81649"
         style="fill:#005893;fill-opacity:1;stroke:none"
         inkscape:connector-curvature="0" />
      <path
         id="path4750"
         d="m 110.11216,165.78472 10.00006,-10.00047 -0.99167,0.90227 -10.00006,10.00047 0.99167,-0.90227"
         style="fill:#005893;fill-opacity:1;stroke:none"
         inkscape:connector-curvature="0" />
      <path
         id="path4752"
         d="m 109.12049,166.68699 10.00006,-10.00047 -0.64544,0.50591 -10.00006,10.00047 0.64544,-0.50591"
         style="fill:#005893;fill-opacity:1;stroke:none"
         inkscape:connector-curvature="0" />
      <path
         id="path4754"
         d="m 108.47505,167.1929 10.00006,-10.00047 -0.031,0.0274 -10.00005,10.00047 0.031,-0.0274"
         style="fill:#005893;fill-opacity:1;stroke:none"
         inkscape:connector-curvature="0" />
      <path
         id="path4756"
         d="m 108.44405,167.22029 10.00005,-10.00047 -0.27337,0.24443 -10.00005,10.00047 0.27337,-0.24443"
         style="fill:#005893;fill-opacity:1;stroke:none"
         inkscape:connector-curvature="0" />
      <path
         id="path4758"
         d="m 108.17068,167.46472 10.00005,-10.00047 -0.0145,0.0103 -10.00006,10.00047 0.0145,-0.0103"
         style="fill:#005893;fill-opacity:1;stroke:none"
         inkscape:connector-curvature="0" />
      <path
         id="path4760"
         d="m 108.1562,167.47506 10.00006,-10.00047 -0.12092,0.0109 -10.00006,10.00047 0.12092,-0.0108"
         style="fill:#005893;fill-opacity:1;stroke:none"
         inkscape:connector-curvature="0" />
      <path
         id="path4762"
         d="m 108.03528,167.48591 10.00006,-10.00047 -0.37724,0.0512 -10.00006,10.00047 0.37724,-0.0512"
         style="fill:#005893;fill-opacity:1;stroke:none"
         inkscape:connector-curvature="0" />
      <path
         id="path4764"
         d="M 107.65804,167.53707 117.6581,157.5366 h -0.63149 l -10.00005,10.00047 h 0.63148"
         style="fill:#005893;fill-opacity:1;stroke:none"
         inkscape:connector-curvature="0" />
      <path
         id="path4766"
         d="m 107.02656,167.53707 10.00005,-10.00047 h -0.0388 l -10.00006,10.00047 h 0.0388"
         style="fill:#005893;fill-opacity:1;stroke:none"
         inkscape:connector-curvature="0" />
      <path
         id="path4768"
         d="m 106.9878,167.53707 10.00006,-10.00047 0.16794,-0.11214 -10.00005,10.00047 -0.16795,0.11214"
         style="fill:#005893;fill-opacity:1;stroke:none"
         inkscape:connector-curvature="0" />
      <path
         id="path4770"
         d="m 107.15575,167.42493 10.00005,-10.00047 1.16996,-1.06505 -10.00006,10.00047 -1.16995,1.06505"
         style="fill:#005893;fill-opacity:1;stroke:none"
         inkscape:connector-curvature="0" />
      <path
         id="path4772"
         d="m 108.3257,166.35988 10.00006,-10.00047 0.33641,-0.39842 -10.00005,10.00047 -0.33642,0.39842"
         style="fill:#005893;fill-opacity:1;stroke:none"
         inkscape:connector-curvature="0" />
      <path
         id="path4774"
         d="m 108.66212,165.96146 10.00005,-10.00047 -0.0186,0.0243 -10.00005,10.00048 0.0186,-0.0243"
         style="fill:#005893;fill-opacity:1;stroke:none"
         inkscape:connector-curvature="0" />
      <path
         id="path4776"
         d="m 108.64352,165.98575 10.00005,-10.00048 0.5917,-0.72347 -10.00006,10.00047 -0.59169,0.72348"
         style="fill:#005893;fill-opacity:1;stroke:none"
         inkscape:connector-curvature="0" />
      <path
         id="path4778"
         d="m 109.23521,165.26227 10.00006,-10.00047 0.55552,-0.62115 -10.00006,10.00047 -0.55552,0.62115"
         style="fill:#005893;fill-opacity:1;stroke:none"
         inkscape:connector-curvature="0" />
      <path
         id="path4780"
         d="m 109.79073,164.64112 10.00006,-10.00047 0.0269,-0.0294 -10.00005,10.00047 -0.0269,0.0294"
         style="fill:#005893;fill-opacity:1;stroke:none"
         inkscape:connector-curvature="0" />
      <path
         id="path4782"
         d="m 109.81761,164.61167 10.00005,-10.00047 0.24288,-0.31368 -10.00006,10.00047 -0.24287,0.31368"
         style="fill:#005893;fill-opacity:1;stroke:none"
         inkscape:connector-curvature="0" />
      <path
         id="path4784"
         d="m 110.06048,164.29799 10.00006,-10.00047 0.0656,-0.10232 -10.00006,10.00047 -0.0656,0.10232"
         style="fill:#005893;fill-opacity:1;stroke:none"
         inkscape:connector-curvature="0" />
      <path
         id="path4786"
         d="m 110.12611,164.19567 10.00006,-10.00047 0.5333,-0.36328 -10.00006,10.00047 -0.5333,0.36328"
         style="fill:#005893;fill-opacity:1;stroke:none"
         inkscape:connector-curvature="0" />
      <path
         id="path4788"
         d="m 110.65941,163.83239 10.00006,-10.00047 0.0331,-0.0233 -10.00005,10.00047 -0.0331,0.0233"
         style="fill:#005893;fill-opacity:1;stroke:none"
         inkscape:connector-curvature="0" />
      <path
         id="path4790"
         d="m 110.69249,163.80913 10.00005,-10.00047 0.64751,-0.59583 -10.00006,10.00047 -0.6475,0.59583"
         style="fill:#005893;fill-opacity:1;stroke:none"
         inkscape:connector-curvature="0" />
      <path
         id="path4792"
         d="m 111.33999,163.2133 10.00006,-10.00047 0.0734,-0.18707 -10.00006,10.00047 -0.0734,0.18707"
         style="fill:#005893;fill-opacity:1;stroke:none"
         inkscape:connector-curvature="0" />
      <path
         id="path4794"
         d="m 111.41337,163.02623 10.00006,-10.00047 0.0486,-0.36173 -10.00006,10.00047 -0.0486,0.36173"
         style="fill:#005893;fill-opacity:1;stroke:none"
         inkscape:connector-curvature="0" />
      <path
         id="path4796"
         d="m 111.46195,162.6645 10.00006,-10.00047 v -5.3e-4 l -10.00006,10.00047 v 5.3e-4"
         style="fill:#005893;fill-opacity:1;stroke:none"
         inkscape:connector-curvature="0" />
      <path
         id="path4798"
         d="m 111.46195,162.66397 10.00006,-10.00047 0.0672,-0.50592 -10.00005,10.00048 -0.0672,0.50591"
         style="fill:#005893;fill-opacity:1;stroke:none"
         inkscape:connector-curvature="0" />
      <path
         id="path4800"
         d="m 111.52913,162.15806 10.00005,-10.00048 -0.009,-0.15709 -10.00006,10.00047 0.009,0.1571"
         style="fill:#005893;fill-opacity:1;stroke:none"
         inkscape:connector-curvature="0" />
      <path
         id="path4802"
         d="m 111.52034,162.00096 10.00006,-10.00047 -0.11162,-0.87902 -10.00006,10.00047 0.11162,0.87902"
         style="fill:#005893;fill-opacity:1;stroke:none"
         inkscape:connector-curvature="0" />
      <path
         id="path4804"
         d="m 111.40872,161.12194 10.00006,-10.00047 -0.003,-0.0238 -10.00005,10.00047 0.003,0.0238"
         style="fill:#005893;fill-opacity:1;stroke:none"
         inkscape:connector-curvature="0" />
      <path
         id="path4806"
         d="m 111.40608,161.09818 10.00005,-10.00047 -0.17724,-0.71727 -10.00006,10.00047 0.17725,0.71727"
         style="fill:#005893;fill-opacity:1;stroke:none"
         inkscape:connector-curvature="0" />
      <path
         id="path4808"
         d="m 111.22883,160.38091 10.00006,-10.00047 -0.40205,-0.29249 -10.00005,10.00047 0.40204,0.29249"
         style="fill:#005893;fill-opacity:1;stroke:none"
         inkscape:connector-curvature="0" />
      <path
         id="path4810"
         d="m 110.82679,160.08842 10.00005,-10.00047 h -13.05708 l -10.000057,10.00047 h 13.057087"
         style="fill:#005893;fill-opacity:1;stroke:none"
         inkscape:connector-curvature="0" />
      <path
         id="path4812"
         d="m 97.769703,160.08842 10.000057,-10.00047 5.49992,-41.24812 -10.00005,10.00047 -5.499927,41.24812"
         style="fill:#005893;fill-opacity:1;stroke:none"
         inkscape:connector-curvature="0" />
      <path
         id="path4814"
         d="m 103.26963,118.8403 10.00005,-10.00047 -0.10101,-0.33432 -10.00006,10.00047 0.10102,0.33432"
         style="fill:#005893;fill-opacity:1;stroke:none"
         inkscape:connector-curvature="0" />
      <path
         id="path4816"
         d="m 103.16861,118.50598 10.00006,-10.00047 -0.31809,-0.14421 -10.00005,10.00047 0.31808,0.14421"
         style="fill:#005893;fill-opacity:1;stroke:none"
         inkscape:connector-curvature="0" />
      <path
         id="path4818"
         d="m 102.85053,118.36177 10.00005,-10.00047 -20.640557,-1e-5 -10.000056,10.00048 h 20.640563"
         style="fill:#005893;fill-opacity:1;stroke:none"
         inkscape:connector-curvature="0" />
      <path
         id="path4820"
         d="m 82.209967,118.36177 10.000056,-10.00048 v 0 l -10.000056,10.00048 v 0"
         style="fill:#005893;fill-opacity:1;stroke:none"
         inkscape:connector-curvature="0" />
      <path
         id="path4822"
         d="m 86.269152,138.39775 10.000056,-10.00047 -5.3e-4,0.002 -10.000056,10.00047 5.3e-4,-0.002"
         style="fill:#005893;fill-opacity:1;stroke:none"
         inkscape:connector-curvature="0" />
      <path
         id="path4824"
         d="M 86.268622,138.39987 96.268678,128.3994 v -0.001 l -10.000056,10.00047 v 0.001"
         style="fill:#005893;fill-opacity:1;stroke:none"
         inkscape:connector-curvature="0" />
      <path
         id="path4826"
         d="m 86.268622,138.39881 10.000056,-10.00047 5.3e-4,-10e-4 -10.000056,10.00047 -5.3e-4,0.001"
         style="fill:#005893;fill-opacity:1;stroke:none"
         inkscape:connector-curvature="0" />
      <path
         id="path4828"
         d="m 86.269152,138.39775 10.000056,-10.00047 v 0 l -10.000056,10.00047 v 0"
         style="fill:#005893;fill-opacity:1;stroke:none"
         inkscape:connector-curvature="0" />
    </g>
    <path
       sodipodi:type="inkscape:offset"
       inkscape:radius="1.5974801"
       inkscape:original="M 310.71484 448.94922 L 301.93359 514.82031 L 303.58594 516.45898 C 304.21001 516.45898 305.23801 516.55028 306.66992 516.73242 C 308.12614 516.73242 309.67452 516.82372 311.31445 517.00586 C 312.95439 517.18818 314.48995 517.37056 315.92188 517.55273 C 317.35375 517.73502 318.37089 517.91744 318.9707 518.09961 C 319.15443 518.28182 320.12034 518.82723 321.87109 519.73828 C 323.85421 520.46716 325.23795 521.01456 326.02148 521.37891 C 326.20521 521.56116 326.48029 521.83487 326.84766 522.19922 C 327.42294 522.56368 327.68743 522.92862 327.63867 523.29297 L 327.60156 523.56641 C 327.76106 523.9309 327.83984 524.11133 327.83984 524.11133 C 327.63197 524.11133 327.51486 524.20263 327.49219 524.38477 L 327.49219 524.38672 L 327.41992 524.93359 C 326.58782 524.93359 325.0157 525.02289 322.70312 525.20508 C 320.62284 525.20508 318.32142 525.29638 315.80078 525.47852 C 313.28014 525.6608 310.8634 525.84322 308.55078 526.02539 C 306.44619 526.20768 304.96582 526.39009 304.10938 526.57227 C 303.66902 526.75448 302.90514 527.02823 301.81641 527.39258 C 300.72768 527.757 300.16916 528.03072 300.14648 528.21289 L 282.14453 663.23438 L 465.00195 663.23438 L 472.43555 607.47656 L 428.125 607.47656 C 428.0521 608.0232 427.73569 608.84224 427.17383 609.93555 C 426.61204 611.02881 426.03726 612.21472 425.45117 613.49023 C 424.86504 614.76571 424.2923 615.94966 423.73047 617.04297 C 423.37674 618.13623 423.05816 618.95532 422.77734 619.50195 C 422.49641 620.04859 422.06269 620.96081 421.47656 622.23633 C 420.89051 623.51177 420.48244 624.23969 420.25 624.42188 C 419.99337 624.78633 419.01557 625.88099 417.31641 627.70312 C 415.64155 629.34307 414.33943 630.52702 413.41016 631.25586 C 412.9455 631.62032 412.13234 632.25688 410.9707 633.16797 C 410.01717 634.07902 409.43677 634.53516 409.22852 634.53516 C 409.02049 634.53516 408.28027 634.62646 407.00781 634.80859 L 404.50977 634.80859 L 402.01367 634.80859 C 400.78979 634.62642 399.97074 634.53516 399.55469 634.53516 C 400.43539 634.17073 401.92081 633.16927 404.01172 631.5293 C 406.33496 629.70715 407.75238 628.43197 408.26562 627.70312 C 408.49795 627.52089 408.87151 627.06478 409.38477 626.33594 C 410.13032 625.42488 410.87554 624.51266 411.62109 623.60156 C 412.36668 622.69047 413.10102 621.87142 413.82227 621.14258 C 414.56782 620.23156 414.95389 619.68413 414.97656 619.50195 C 415.44122 619.13753 416.24157 618.59216 417.37891 617.86328 C 418.54043 616.95219 419.24923 616.31357 419.50586 615.94922 L 419.68945 614.58203 L 419.94336 612.66992 C 419.80832 612.12325 419.65552 610.93738 419.48242 609.11523 C 419.37161 608.38635 419.16747 607.56731 418.87305 606.65625 L 367.69922 606.65625 L 388.72656 448.94922 L 310.71484 448.94922 z "
       style="font-style:normal;font-variant:normal;font-weight:normal;font-stretch:normal;font-size:68.77635956px;line-height:23.0277977px;font-family:'Minecrafter Alt';-inkscape-font-specification:'Minecrafter Alt, Normal';font-variant-ligatures:normal;font-variant-caps:normal;font-variant-numeric:normal;font-feature-settings:normal;text-align:start;letter-spacing:0px;word-spacing:0px;writing-mode:lr-tb;text-anchor:start;fill:#005893;fill-opacity:1;stroke:none;stroke-width:3.48136783px;stroke-linecap:butt;stroke-linejoin:miter;stroke-opacity:1"
       id="path4641"
       d="m 310.71484,447.35156 a 1.5976398,1.5976398 0 0 0 -1.58398,1.38672 l -8.78125,65.8711 a 1.5976398,1.5976398 0 0 0 0.45898,1.3457 l 1.65235,1.63867 a 1.5976398,1.5976398 0 0 0 1.125,0.46289 c 0.46826,0 1.47955,0.0813 2.88281,0.25977 a 1.5976398,1.5976398 0 0 0 0.20117,0.0137 c 1.38945,0 2.88026,0.0872 4.46875,0.26367 1.63251,0.18149 3.15952,0.362 4.58203,0.54297 1.30264,0.16584 2.15597,0.33848 2.60352,0.46094 0.0227,0.0138 0.0515,0.041 0.0762,0.0566 0.18054,0.11428 0.39063,0.23827 0.64649,0.38281 0.51171,0.28907 1.20148,0.65889 2.08593,1.11914 a 1.5976398,1.5976398 0 0 0 0.1875,0.082 c 1.8572,0.6826 3.08468,1.17674 3.80469,1.50195 0.16919,0.16808 0.33116,0.32944 0.59766,0.59375 a 1.5976398,1.5976398 0 0 0 0.10546,0.0937 c -0.90459,0.0402 -1.67073,0.0618 -3.19726,0.18165 -0.0252,0.002 -0.0273,0.002 -0.0527,0.004 -2.09652,0.003 -4.38596,0.0904 -6.89257,0.27149 -2.52385,0.18251 -4.94352,0.36637 -7.25977,0.54882 a 1.5976398,1.5976398 0 0 0 -0.0137,0 c -2.13171,0.18464 -3.62415,0.3612 -4.63477,0.57618 a 1.5976398,1.5976398 0 0 0 -0.27929,0.0859 c -0.35961,0.1488 -1.11584,0.42196 -2.18946,0.78125 -0.58055,0.19433 -1.03516,0.36591 -1.43164,0.56055 -0.19823,0.0973 -0.38052,0.19322 -0.59961,0.36523 -0.21908,0.17202 -0.61787,0.41835 -0.71679,1.21289 l -18,135.00782 a 1.5976398,1.5976398 0 0 0 1.58398,1.80859 h 182.85742 a 1.5976398,1.5976398 0 0 0 1.58399,-1.38672 l 7.43359,-55.75781 a 1.5976398,1.5976398 0 0 0 -1.58398,-1.80859 H 428.125 a 1.5976398,1.5976398 0 0 0 -1.58398,1.38671 c -0.0205,0.15354 -0.26206,0.91777 -0.78711,1.93946 -0.57399,1.11699 -1.15922,2.32297 -1.75391,3.61719 -0.57788,1.25752 -1.14019,2.42137 -1.68945,3.49023 a 1.5976398,1.5976398 0 0 0 -0.0996,0.23828 c -0.33919,1.04833 -0.64665,1.81422 -0.85547,2.2207 h 0.002 c -0.30565,0.59474 -0.74172,1.51225 -1.33203,2.79688 a 1.5976398,1.5976398 0 0 0 0,0.002 c -0.28243,0.61467 -0.51851,1.08552 -0.6875,1.38672 -0.16899,0.3012 -0.41376,0.47317 -0.0742,0.20703 a 1.5976398,1.5976398 0 0 0 -0.32031,0.33789 c -0.0236,0.0336 -1.10545,1.29762 -2.77148,3.08594 -1.63627,1.60078 -2.91574,2.75736 -3.74805,3.41016 -0.46327,0.36336 -1.27727,1.00059 -2.43945,1.91211 a 1.5976398,1.5976398 0 0 0 -0.11719,0.10351 c -0.456,0.43568 -0.81562,0.75302 -1.03321,0.92383 -0.0331,0.0259 -0.029,0.0204 -0.0547,0.0391 -0.13699,0.0142 -0.26131,0.0169 -0.45703,0.041 -0.35904,0.0442 -0.84982,0.11142 -1.42579,0.19336 h -2.38671 -0.14649 c 0.25764,-0.19797 0.35471,-0.20418 0.63477,-0.42383 2.28116,-1.78915 3.60406,-2.91743 4.42187,-4.02539 0.47223,-0.41653 0.79215,-0.8252 1.27149,-1.50586 l -0.0703,0.0918 c 0.74612,-0.91176 1.49133,-1.82395 2.23633,-2.73438 0.71718,-0.87638 1.41792,-1.65879 2.09961,-2.34766 a 1.5976398,1.5976398 0 0 0 0.10156,-0.11132 c 0.38651,-0.47229 0.68613,-0.85622 0.91797,-1.18555 0.093,-0.1321 0.17073,-0.257 0.24805,-0.38672 0.4131,-0.30848 1.02493,-0.73815 2.01562,-1.37305 a 1.5976398,1.5976398 0 0 0 0.125,-0.0879 c 1.19843,-0.94004 1.89927,-1.47392 2.44727,-2.25195 a 1.5976398,1.5976398 0 0 0 0.27734,-0.70703 l 0.1836,-1.36719 a 1.5976398,1.5976398 0 0 0 0,-0.002 l 0.2539,-1.91211 a 1.5976398,1.5976398 0 0 0 -0.0332,-0.59375 c -0.0733,-0.29687 -0.25097,-1.52327 -0.42187,-3.32227 a 1.5976398,1.5976398 0 0 0 -0.01,-0.0898 c -0.1279,-0.8413 -0.3558,-1.7389 -0.66992,-2.71094 a 1.5976398,1.5976398 0 0 0 -1.51953,-1.10547 h -49.34961 l 20.78711,-155.89843 a 1.5976398,1.5976398 0 0 0 -1.58399,-1.8086 z m 15.3418,75.72656 -0.002,0.008 c 2.1e-4,-0.002 -2.2e-4,-0.002 0,-0.004 z"
       transform="matrix(0.26458333,0,0,0.26458333,10.000056,-10.000472)" />
    <path
       transform="scale(0.26458333)"
       d="m 310.71484,447.35156 a 1.5976398,1.5976398 0 0 0 -1.58398,1.38672 l -8.78125,65.8711 a 1.5976398,1.5976398 0 0 0 0.45898,1.3457 l 1.65235,1.63867 a 1.5976398,1.5976398 0 0 0 1.125,0.46289 c 0.46826,0 1.47955,0.0813 2.88281,0.25977 a 1.5976398,1.5976398 0 0 0 0.20117,0.0137 c 1.38945,0 2.88026,0.0872 4.46875,0.26367 1.63251,0.18149 3.15952,0.362 4.58203,0.54297 1.30264,0.16584 2.15597,0.33848 2.60352,0.46094 0.0227,0.0138 0.0515,0.041 0.0762,0.0566 0.18054,0.11428 0.39063,0.23827 0.64649,0.38281 0.51171,0.28907 1.20148,0.65889 2.08593,1.11914 a 1.5976398,1.5976398 0 0 0 0.1875,0.082 c 1.8572,0.6826 3.08468,1.17674 3.80469,1.50195 0.16919,0.16808 0.33116,0.32944 0.59766,0.59375 a 1.5976398,1.5976398 0 0 0 0.10546,0.0937 c -0.90459,0.0402 -1.67073,0.0618 -3.19726,0.18165 -0.0252,0.002 -0.0273,0.002 -0.0527,0.004 -2.09652,0.003 -4.38596,0.0904 -6.89257,0.27149 -2.52385,0.18251 -4.94352,0.36637 -7.25977,0.54882 a 1.5976398,1.5976398 0 0 0 -0.0137,0 c -2.13171,0.18464 -3.62415,0.3612 -4.63477,0.57618 a 1.5976398,1.5976398 0 0 0 -0.27929,0.0859 c -0.35961,0.1488 -1.11584,0.42196 -2.18946,0.78125 -0.58055,0.19433 -1.03516,0.36591 -1.43164,0.56055 -0.19823,0.0973 -0.38052,0.19322 -0.59961,0.36523 -0.21908,0.17202 -0.61787,0.41835 -0.71679,1.21289 l -18,135.00782 a 1.5976398,1.5976398 0 0 0 1.58398,1.80859 h 182.85742 a 1.5976398,1.5976398 0 0 0 1.58399,-1.38672 l 7.43359,-55.75781 a 1.5976398,1.5976398 0 0 0 -1.58398,-1.80859 H 428.125 a 1.5976398,1.5976398 0 0 0 -1.58398,1.38671 c -0.0205,0.15354 -0.26206,0.91777 -0.78711,1.93946 -0.57399,1.11699 -1.15922,2.32297 -1.75391,3.61719 -0.57788,1.25752 -1.14019,2.42137 -1.68945,3.49023 a 1.5976398,1.5976398 0 0 0 -0.0996,0.23828 c -0.33919,1.04833 -0.64665,1.81422 -0.85547,2.2207 h 0.002 c -0.30565,0.59474 -0.74172,1.51225 -1.33203,2.79688 a 1.5976398,1.5976398 0 0 0 0,0.002 c -0.28243,0.61467 -0.51851,1.08552 -0.6875,1.38672 -0.16899,0.3012 -0.41376,0.47317 -0.0742,0.20703 a 1.5976398,1.5976398 0 0 0 -0.32031,0.33789 c -0.0236,0.0336 -1.10545,1.29762 -2.77148,3.08594 -1.63627,1.60078 -2.91574,2.75736 -3.74805,3.41016 -0.46327,0.36336 -1.27727,1.00059 -2.43945,1.91211 a 1.5976398,1.5976398 0 0 0 -0.11719,0.10351 c -0.456,0.43568 -0.81562,0.75302 -1.03321,0.92383 -0.0331,0.0259 -0.029,0.0204 -0.0547,0.0391 -0.13699,0.0142 -0.26131,0.0169 -0.45703,0.041 -0.35904,0.0442 -0.84982,0.11142 -1.42579,0.19336 h -2.38671 -0.14649 c 0.25764,-0.19797 0.35471,-0.20418 0.63477,-0.42383 2.28116,-1.78915 3.60406,-2.91743 4.42187,-4.02539 0.47223,-0.41653 0.79215,-0.8252 1.27149,-1.50586 l -0.0703,0.0918 c 0.74612,-0.91176 1.49133,-1.82395 2.23633,-2.73438 0.71718,-0.87638 1.41792,-1.65879 2.09961,-2.34766 a 1.5976398,1.5976398 0 0 0 0.10156,-0.11132 c 0.38651,-0.47229 0.68613,-0.85622 0.91797,-1.18555 0.093,-0.1321 0.17073,-0.257 0.24805,-0.38672 0.4131,-0.30848 1.02493,-0.73815 2.01562,-1.37305 a 1.5976398,1.5976398 0 0 0 0.125,-0.0879 c 1.19843,-0.94004 1.89927,-1.47392 2.44727,-2.25195 a 1.5976398,1.5976398 0 0 0 0.27734,-0.70703 l 0.1836,-1.36719 a 1.5976398,1.5976398 0 0 0 0,-0.002 l 0.2539,-1.91211 a 1.5976398,1.5976398 0 0 0 -0.0332,-0.59375 c -0.0733,-0.29687 -0.25097,-1.52327 -0.42187,-3.32227 a 1.5976398,1.5976398 0 0 0 -0.01,-0.0898 c -0.1279,-0.8413 -0.3558,-1.7389 -0.66992,-2.71094 a 1.5976398,1.5976398 0 0 0 -1.51953,-1.10547 h -49.34961 l 20.78711,-155.89843 a 1.5976398,1.5976398 0 0 0 -1.58399,-1.8086 z m 15.3418,75.72656 -0.002,0.008 c 2.1e-4,-0.002 -2.2e-4,-0.002 0,-0.004 z"
       id="path4633"
       style="font-style:normal;font-variant:normal;font-weight:normal;font-stretch:normal;font-size:68.77635956px;line-height:23.0277977px;font-family:'Minecrafter Alt';-inkscape-font-specification:'Minecrafter Alt, Normal';font-variant-ligatures:normal;font-variant-caps:normal;font-variant-numeric:normal;font-feature-settings:normal;text-align:start;letter-spacing:0px;word-spacing:0px;writing-mode:lr-tb;text-anchor:start;fill:#005893;fill-opacity:1;stroke:none;stroke-width:3.48136783px;stroke-linecap:butt;stroke-linejoin:miter;stroke-opacity:1"
       inkscape:original="M 310.71484 448.94922 L 301.93359 514.82031 L 303.58594 516.45898 C 304.21001 516.45898 305.23801 516.55028 306.66992 516.73242 C 308.12614 516.73242 309.67452 516.82372 311.31445 517.00586 C 312.95439 517.18818 314.48995 517.37056 315.92188 517.55273 C 317.35375 517.73502 318.37089 517.91744 318.9707 518.09961 C 319.15443 518.28182 320.12034 518.82723 321.87109 519.73828 C 323.85421 520.46716 325.23795 521.01456 326.02148 521.37891 C 326.20521 521.56116 326.48029 521.83487 326.84766 522.19922 C 327.42294 522.56368 327.68743 522.92862 327.63867 523.29297 L 327.60156 523.56641 C 327.76106 523.9309 327.83984 524.11133 327.83984 524.11133 C 327.63197 524.11133 327.51486 524.20263 327.49219 524.38477 L 327.49219 524.38672 L 327.41992 524.93359 C 326.58782 524.93359 325.0157 525.02289 322.70312 525.20508 C 320.62284 525.20508 318.32142 525.29638 315.80078 525.47852 C 313.28014 525.6608 310.8634 525.84322 308.55078 526.02539 C 306.44619 526.20768 304.96582 526.39009 304.10938 526.57227 C 303.66902 526.75448 302.90514 527.02823 301.81641 527.39258 C 300.72768 527.757 300.16916 528.03072 300.14648 528.21289 L 282.14453 663.23438 L 465.00195 663.23438 L 472.43555 607.47656 L 428.125 607.47656 C 428.0521 608.0232 427.73569 608.84224 427.17383 609.93555 C 426.61204 611.02881 426.03726 612.21472 425.45117 613.49023 C 424.86504 614.76571 424.2923 615.94966 423.73047 617.04297 C 423.37674 618.13623 423.05816 618.95532 422.77734 619.50195 C 422.49641 620.04859 422.06269 620.96081 421.47656 622.23633 C 420.89051 623.51177 420.48244 624.23969 420.25 624.42188 C 419.99337 624.78633 419.01557 625.88099 417.31641 627.70312 C 415.64155 629.34307 414.33943 630.52702 413.41016 631.25586 C 412.9455 631.62032 412.13234 632.25688 410.9707 633.16797 C 410.01717 634.07902 409.43677 634.53516 409.22852 634.53516 C 409.02049 634.53516 408.28027 634.62646 407.00781 634.80859 L 404.50977 634.80859 L 402.01367 634.80859 C 400.78979 634.62642 399.97074 634.53516 399.55469 634.53516 C 400.43539 634.17073 401.92081 633.16927 404.01172 631.5293 C 406.33496 629.70715 407.75238 628.43197 408.26562 627.70312 C 408.49795 627.52089 408.87151 627.06478 409.38477 626.33594 C 410.13032 625.42488 410.87554 624.51266 411.62109 623.60156 C 412.36668 622.69047 413.10102 621.87142 413.82227 621.14258 C 414.56782 620.23156 414.95389 619.68413 414.97656 619.50195 C 415.44122 619.13753 416.24157 618.59216 417.37891 617.86328 C 418.54043 616.95219 419.24923 616.31357 419.50586 615.94922 L 419.68945 614.58203 L 419.94336 612.66992 C 419.80832 612.12325 419.65552 610.93738 419.48242 609.11523 C 419.37161 608.38635 419.16747 607.56731 418.87305 606.65625 L 367.69922 606.65625 L 388.72656 448.94922 L 310.71484 448.94922 z "
       inkscape:radius="1.5974801"
       sodipodi:type="inkscape:offset" />
    <g
       aria-label="L"
       style="font-style:normal;font-weight:normal;font-size:49.12596893px;line-height:23.0277977px;font-family:sans-serif;letter-spacing:0px;word-spacing:0px;fill:#007dd1;fill-opacity:1;stroke:none;stroke-width:0.92111188px;stroke-linecap:butt;stroke-linejoin:miter;stroke-opacity:1"
       id="text4495"
       transform="matrix(-1,0,0,1,195.97915,-39.120537)">
      <path
         d="m 109.33032,177.86422 c -0.006,-0.0482 -0.0372,-0.0723 -0.0922,-0.0723 0,0 0.0211,-0.0482 0.0633,-0.14464 0,0 -0.01,-0.0723 -0.01,-0.0723 -0.0129,-0.0964 0.0569,-0.19284 0.20911,-0.28927 0.0972,-0.0964 0.17015,-0.16873 0.21876,-0.21695 0.20731,-0.0964 0.57331,-0.24105 1.09801,-0.4339 0.46322,-0.24105 0.71914,-0.38569 0.76775,-0.4339 0.1587,-0.0482 0.42748,-0.0964 0.80633,-0.14463 0.37886,-0.0482 0.78524,-0.0964 1.21914,-0.14464 0.4339,-0.0482 0.84349,-0.0723 1.22878,-0.0723 0.37886,-0.0482 0.65085,-0.0723 0.81597,-0.0723 0,0 0.43752,-0.43388 0.43752,-0.43388 0,0 -2.32379,-17.42837 -2.32379,-17.42837 0,0 -20.640334,0 -20.640334,0 0,0 5.563577,41.72684 5.563577,41.72684 0,0 -13.540068,0 -13.540068,0 -0.07794,0.24105 -0.13157,0.458 -0.160893,0.65085 -0.04581,0.48211 -0.08658,0.79548 -0.122336,0.94012 0,0 0.06749,0.50621 0.06749,0.50621 0,0 0.04821,0.36159 0.04821,0.36159 0.06792,0.0964 0.255534,0.26516 0.562853,0.50622 0.300925,0.19285 0.512855,0.33748 0.63579,0.4339 0.0064,0.0482 0.108277,0.19286 0.305539,0.4339 0.190836,0.19284 0.384886,0.40979 0.58215,0.65085 0.197265,0.24106 0.394525,0.48212 0.591781,0.72317 0.1358,0.19284 0.234432,0.31337 0.295897,0.36159 0.1358,0.19284 0.511044,0.53032 1.125732,1.01243 0.553224,0.43391 0.946344,0.69907 1.179359,0.79549 -0.11008,0 -0.327028,0.0241 -0.650844,0.0723 -0.330247,0 -0.55041,0 -0.66049,0 -0.11008,0 -0.330243,0 -0.66049,0 -0.336677,-0.0482 -0.532534,-0.0723 -0.587569,-0.0723 -0.05506,0 -0.208736,-0.12053 -0.461028,-0.36158 -0.307344,-0.24106 -0.522484,-0.4098 -0.645421,-0.50623 -0.245879,-0.19284 -0.590387,-0.50621 -1.033523,-0.94011 -0.449572,-0.48211 -0.708305,-0.77138 -0.776198,-0.86781 -0.06149,-0.0482 -0.169764,-0.24107 -0.324823,-0.57853 -0.155076,-0.33748 -0.269778,-0.57854 -0.344107,-0.72317 -0.07434,-0.14463 -0.158311,-0.36159 -0.2519,-0.65085 -0.148657,-0.28927 -0.300523,-0.60265 -0.4556,-0.94012 -0.155077,-0.33748 -0.30694,-0.65086 -0.455588,-0.94012 -0.148656,-0.28927 -0.232627,-0.50622 -0.251911,-0.65085 0,0 -11.723709,0 -11.723709,0 0,0 1.967018,14.75264 1.967018,14.75264 0,0 48.380956,0 48.380956,0 0,0 -4.76327,-35.72454 -4.76327,-35.72454 -0.006,-0.0482 -0.15368,-0.12053 -0.44174,-0.21695 -0.28806,-0.0964 -0.49034,-0.16874 -0.60685,-0.21695 -0.2266,-0.0482 -0.61831,-0.0964 -1.17515,-0.14463 -0.61188,-0.0482 -1.25127,-0.0964 -1.91819,-0.14463 -0.66692,-0.0482 -1.27559,-0.0723 -1.826,-0.0723 -0.61187,-0.0482 -1.0279,-0.0723 -1.24806,-0.0723 0,0 -0.0193,-0.14462 -0.0193,-0.14462"
         style="font-style:normal;font-variant:normal;font-weight:normal;font-stretch:normal;font-size:68.77635956px;font-family:'Minecrafter Alt';-inkscape-font-specification:'Minecrafter Alt, Normal';font-variant-ligatures:normal;font-variant-caps:normal;font-variant-numeric:normal;font-feature-settings:normal;text-align:start;writing-mode:lr-tb;text-anchor:start;fill:#007dd1;fill-opacity:1;stroke-width:0.92111188px"
         id="path4497"
         inkscape:connector-curvature="0" />
    </g>
  </g>
</svg>
